<svg xmlns="http://www.w3.org/2000/svg" xmlns:xlink="http://www.w3.org/1999/xlink" width="128" height="128" viewBox="0 0 128 128"><linearGradient id="a" x1="52" x2="76" y1="76.608" y2="76.576" gradientUnits="userSpaceOnUse"><stop offset="0" stop-color="#e66100"/><stop offset=".134" stop-color="#ff7800"/><stop offset=".733" stop-color="#ffbe6f"/><stop offset="1" stop-color="#ffa348"/></linearGradient><linearGradient id="b" x1="58" x2="71" y1="30" y2="30" gradientUnits="userSpaceOnUse"><stop offset="0" stop-color="#deddda"/><stop offset=".388" stop-color="#deddda"/><stop offset=".75" stop-color="#fff"/><stop offset="1" stop-color="#deddda"/></linearGradient><linearGradient id="c" x1="55.072" x2="80" y1="232.132" y2="232" gradientTransform="matrix(1 0 0 1.5 -4 -273.999992)" gradientUnits="userSpaceOnUse"><stop offset="0" stop-color="#9a9996"/><stop offset=".156" stop-color="#c0bfbc"/><stop offset=".356" stop-color="#deddda"/><stop offset=".651" stop-color="#deddda"/><stop offset=".911" stop-color="#c0bfbc"/><stop offset="1" stop-color="#9a9996"/></linearGradient><linearGradient id="d" x1="22" x2="52" y1="84" y2="84" gradientUnits="userSpaceOnUse"><stop offset="0" stop-color="#a51d2d"/><stop offset=".4" stop-color="#c01c28"/><stop offset=".68" stop-color="#ed333b"/><stop offset="1" stop-color="#c01c28"/></linearGradient><linearGradient id="e" x1="35" x2="48" y1="255" y2="255" gradientTransform="matrix(1.125 0 0 1 -2 -172)" gradientUnits="userSpaceOnUse"><stop offset="0"/><stop offset="1" stop-color="#241f31"/></linearGradient><linearGradient id="f" x1="83.998" x2="107.007" y1="64" y2="63.881" gradientUnits="userSpaceOnUse"><stop offset="0" stop-color="#26a269"/><stop offset=".724" stop-color="#33d17a"/><stop offset="1" stop-color="#26a269"/></linearGradient><linearGradient id="g" x1="76" x2="108" y1="92" y2="92" gradientUnits="userSpaceOnUse"><stop offset="0" stop-color="#e5a50a"/><stop offset=".375" stop-color="#f6d32d"/><stop offset=".754" stop-color="#f9f06b"/><stop offset="1" stop-color="#e5a50a"/></linearGradient><linearGradient id="h" x1="86" x2="98" y1="40" y2="40" gradientUnits="userSpaceOnUse"><stop offset="0" stop-color="#e5a50a"/><stop offset=".434" stop-color="#f6d32d"/><stop offset=".754" stop-color="#f9f06b"/><stop offset="1" stop-color="#e5a50a"/></linearGradient><linearGradient id="i" gradientUnits="userSpaceOnUse"><stop offset="0" stop-color="#241f31" stop-opacity="0"/><stop offset=".667" stop-color="#77767b"/><stop offset="1" stop-color="#241f31" stop-opacity="0"/></linearGradient><linearGradient id="j" x1="28" x2="42" y1="37" y2="37" xlink:href="#i"/><linearGradient id="k" x1="28" x2="42" y1="41" y2="41" xlink:href="#i"/><linearGradient id="l" x1="28" x2="42" y1="45" y2="45" xlink:href="#i"/><linearGradient id="m" x1="28" x2="42" y1="49" y2="49" xlink:href="#i"/><linearGradient id="n" x1="28" x2="42" y1="53" y2="53" xlink:href="#i"/><path fill="url(#a)" d="m 60 25.828125 c -0.046875 0.507813 -0.125 0.976563 -0.203125 1.433594 c 0.082031 -0.453125 0.15625 -0.925781 0.203125 -1.433594 z m 8 0 c 0.046875 0.496094 0.117188 0.957031 0.199219 1.402344 c -0.078125 -0.449219 -0.152344 -0.90625 -0.199219 -1.402344 z m -8.277344 1.839844 c -0.066406 0.328125 -0.152344 0.640625 -0.234375 0.945312 c 0.085938 -0.304687 0.164063 -0.617187 0.234375 -0.945312 z m -4.613281 7.707031 c -1.660156 1.523438 -3.109375 2.671875 -3.109375 4.625 v 76 h 24 v -76 c 0 -1.953125 -1.449219 -3.101562 -3.109375 -4.625 z m 0 0"/><path fill="url(#b)" d="m 60 22 v 3.828125 c -0.503906 5.253906 -3.652344 8.207031 -5.5625 10.160156 l 19.105469 -0.019531 c -1.847657 -1.988281 -5.039063 -4.886719 -5.542969 -10.140625 v -3.828125 z m 0 0"/><path fill="#c64600" d="m 52 112 h 24 v 4 h -24 z m 0 0"/><path fill="#a51d2d" d="m 60 8 v 14 h 8 v -14 z m 0 0"/><path d="m 60 4.496094 v 4 h 8 v -4 z m 0 0"/><path fill="url(#c)" d="m 52 56 h 24 v 36 h -24 z m 0 0"/><path fill-opacity=".386" d="m 56 64 v 12 h 16 v -4 h -4 v -4 h -4 v -4 z m 0 0"/><path fill="url(#d)" d="m 30 32 v 24 h -3 c -3.324219 0 -6 2.429688 -6 5.445312 v 54.554688 h 31 v -54.554688 c 0 -3.015624 -2.675781 -5.445312 -6 -5.445312 h -4 v -24 z m 0 0"/><path fill="#72141f" d="m 21 112 h 31 v 4 h -31 z m 0 0"/><path fill="#3d3846" d="m 30 32 h 12 v 24 h -12 z m 0 0"/><path fill="url(#e)" d="m 34 72 h 18 v 24 h -18 z m 0 0"/><path fill="#241f31" d="m 30 30 h 12 v 4 h -12 z m 0 0"/><path fill="#2ec27e" d="m 76 72 h 24 v 44 h -24 z m 0 0"/><path fill="#26a269" d="m 88 52 s -12 2 -12 20 h 32 c 0 -18 -12 -20 -12 -20 z m -12 60 v 4 h 32 v -4 z m 0 0"/><path fill="url(#f)" d="m 88 52 s -12 2 -12 20 h 32 c 0 -18 -12 -20 -12 -20 z m -12 60 v 4 h 32 v -4 z m 0 0"/><path fill="url(#g)" d="m 76 72 h 32 v 40 h -32 z m 0 0"/><path fill="url(#h)" d="m 86 24 c -0.148438 7.816406 0.472656 10.894531 2 14 v 14 h 8 v -14 c 1.863281 -3.203125 2.09375 -8.296875 2 -14 z m 0 0"/><path fill="url(#j)" d="m 30 36 h 12 v 2 h -12 z m 0 0"/><path fill="url(#k)" d="m 30 40 h 12 v 2 h -12 z m 0 0"/><path fill="url(#l)" d="m 30 44 h 12 v 2 h -12 z m 0 0"/><path fill="url(#m)" d="m 30 48 h 12 v 2 h -12 z m 0 0"/><path fill="url(#n)" d="m 30 52 h 12 v 2 h -12 z m 0 0"/><path fill="#c89008" fill-opacity=".545" d="m 86 24 v 4 h 12 v -4 z m 0 0"/><path fill="#c89008" fill-opacity=".545" d="m 76 72 v 4 h 32 v -4 z m 0 0"/><path fill="#124e33" d="m 76 112 h 32 v 4 h -32 z m 0 0"/></svg>